<?xml version="1.0" encoding="UTF-8"?>
<svg version="1.1" xmlns="http://www.w3.org/2000/svg" width="500" height="500">
<path d="M0 0 C7.31088405 0.05128645 14.61972754 0.11456681 21.92993164 0.20751953 C24.41163408 0.23557594 26.89342334 0.2568659 29.37524414 0.27099609 C32.96284956 0.2926386 36.54942776 0.33939826 40.13671875 0.390625 C41.77503914 0.39246796 41.77503914 0.39246796 43.44645691 0.39434814 C60.65553844 0.71444411 75.08489324 7.79974539 87 20 C98.48930958 32.16119903 100.50604321 46.60064931 100.2734375 62.61328125 C99.86112317 74.28259317 95.91373126 83.63350377 89 93 C88.57332031 93.63292969 88.14664063 94.26585937 87.70703125 94.91796875 C79.4592027 106.00812591 64.14971328 112.2991493 50.99740601 114.59637451 C46.13358727 115.2513279 41.32595435 115.24624288 36.42578125 115.1953125 C34.85101265 115.19106766 34.85101265 115.19106766 33.24443054 115.18673706 C29.93366466 115.1756573 26.62318233 115.15057629 23.3125 115.125 C21.05013415 115.1149544 18.78776401 115.10583134 16.52539062 115.09765625 C11.01681998 115.0757581 5.50845785 115.04131423 0 115 C0 108.73 0 102.46 0 96 C-2.97 95.67 -5.94 95.34 -9 95 C-19.09019383 90.87219343 -25.1797925 84.78964742 -30 75 C-33.54611369 66.32230883 -33.36930778 54.89608626 -30.4375 46 C-26.46865057 36.85499379 -20.66968458 30.79114148 -12 26 C-6.555 24.515 -6.555 24.515 -1 23 C-0.67 15.41 -0.34 7.82 0 0 Z M13 13 C13 16.63 13 20.26 13 24 C13.80824219 24.38671875 14.61648437 24.7734375 15.44921875 25.171875 C16.51785156 25.69265625 17.58648437 26.2134375 18.6875 26.75 C19.74324219 27.26046875 20.79898438 27.7709375 21.88671875 28.296875 C24.90003083 29.94531172 27.39287648 31.77499662 30 34 C28.63016497 37.16115776 28.0109362 37.9927092 25 40 C24.37351562 39.566875 23.74703125 39.13375 23.1015625 38.6875 C22.28429687 38.130625 21.46703125 37.57375 20.625 37 C19.81289062 36.443125 19.00078125 35.88625 18.1640625 35.3125 C16.13681813 33.82714156 16.13681813 33.82714156 14 34 C12.73515325 51.32388321 12.8990199 68.64229826 13 86 C16.26648833 84.7347943 18.99911801 83.47124541 21.8125 81.375 C22.864375 80.59125 23.91625 79.8075 25 79 C26.9375 79.75 26.9375 79.75 29 81 C29.62890625 83.078125 29.62890625 83.078125 30 85 C25.35905743 88.59179332 20.82913128 91.80738067 15.56640625 94.43359375 C13.10009512 96.89990488 13.27903073 99.63984119 13 103 C44.15510286 103.78938907 44.15510286 103.78938907 72.1875 91.75 C81.49516205 82.64917488 86.07181688 71.37021336 86.3125 58.5 C86.3125 45.834635 82.70907199 35.39701549 74 26 C56.83661032 10.33939559 34.65504639 12.83096668 13 13 Z M-15.109375 38.83203125 C-22.02019633 46.31875436 -23.71588759 53.25194392 -23.4765625 63.390625 C-22.48800391 70.8777409 -19.11143628 77.47596422 -13.5 82.5625 C-10.51591746 84.79395995 -7.48832877 86.65223661 -4 88 C-2.515 87.505 -2.515 87.505 -1 87 C-0.05143831 78.5688207 0.15608744 70.22965377 0.125 61.75 C0.12209961 59.83924683 0.12209961 59.83924683 0.11914062 57.88989258 C0.07929503 49.22292164 -0.16545522 40.62859689 -1 32 C-6.07043083 32 -11.39983689 35.61022871 -15.109375 38.83203125 Z " fill="#FCFCFC" transform="translate(66,178)"/>
<path d="M0 0 C4.29 0 8.58 0 13 0 C13.71027344 1.79308594 14.42054688 3.58617187 15.15234375 5.43359375 C16.0805937 7.76828303 17.00898648 10.10291553 17.9375 12.4375 C18.40607422 13.62150391 18.87464844 14.80550781 19.35742188 16.02539062 C19.80537109 17.15009766 20.25332031 18.27480469 20.71484375 19.43359375 C21.12855225 20.47572021 21.54226074 21.51784668 21.96850586 22.59155273 C22.78402023 24.90789285 22.78402023 24.90789285 24 26 C24.29769287 25.2479126 24.59538574 24.4958252 24.90209961 23.72094727 C26.24456006 20.33373158 27.59097474 16.94810172 28.9375 13.5625 C29.40607422 12.37849609 29.87464844 11.19449219 30.35742188 9.97460938 C30.80537109 8.84990234 31.25332031 7.72519531 31.71484375 6.56640625 C32.12855225 5.52427979 32.54226074 4.48215332 32.96850586 3.40844727 C34 1 34 1 35 0 C36.99799572 -0.09873816 38.99957158 -0.12971799 41 -0.125 C42.093125 -0.12757813 43.18625 -0.13015625 44.3125 -0.1328125 C47 0 47 0 48 1 C48.30372828 3.32782083 48.54863098 5.6355408 48.75390625 7.97265625 C48.85166603 9.04561195 48.85166603 9.04561195 48.95140076 10.14024353 C49.08898788 11.66758788 49.22416986 13.19515045 49.35717773 14.72290039 C49.55716159 17.00167003 49.76921887 19.27907526 49.98242188 21.55664062 C50.87058726 31.39641952 51.17396336 41.12274713 51 51 C47.37 51 43.74 51 40 51 C39.20174086 47.80696344 38.74818542 45.04585945 38.46484375 41.796875 C38.38613037 40.91354492 38.30741699 40.03021484 38.22631836 39.12011719 C38.1310083 38.00797852 38.03569824 36.89583984 37.9375 35.75 C37.628125 32.2025 37.31875 28.655 37 25 C34.03 33.25 31.06 41.5 28 50 C25.36 50.33 22.72 50.66 20 51 C19.61328125 49.96101563 19.2265625 48.92203125 18.828125 47.8515625 C18.30214428 46.44268558 17.77609911 45.03383272 17.25 43.625 C16.99734375 42.94566406 16.7446875 42.26632812 16.484375 41.56640625 C14.40718096 36.00991219 12.22074997 30.50056106 10 25 C9.94465088 25.64549805 9.88930176 26.29099609 9.83227539 26.95605469 C9.57901389 29.88766855 9.32080964 32.81882681 9.0625 35.75 C8.97548828 36.76578125 8.88847656 37.7815625 8.79882812 38.828125 C8.66831055 40.29765625 8.66831055 40.29765625 8.53515625 41.796875 C8.456604 42.69760742 8.37805176 43.59833984 8.29711914 44.52636719 C8.02860561 46.76184712 7.60337582 48.83403551 7 51 C5.54263913 51.19491452 4.08405407 51.38069358 2.625 51.5625 C1.40683594 51.71912109 1.40683594 51.71912109 0.1640625 51.87890625 C-2 52 -2 52 -4 51 C-4.19099752 40.89097186 -3.74598544 30.99345588 -2.77319336 20.93408203 C-2.55870395 18.71064953 -2.35580965 16.48636155 -2.15429688 14.26171875 C-1.14624794 3.43874383 -1.14624794 3.43874383 0 0 Z " fill="#FDFDFD" transform="translate(338,241)"/>
<path d="M0 0 C3.7001083 2.90030323 5.76292194 6.5182621 6.5 11.125 C5.86680419 16.03226749 3.95725295 17.80431255 0.53125 21.203125 C-1.32430425 22.98709057 -1.32430425 22.98709057 -1 26 C0.43750191 27.68798827 0.43750191 27.68798827 2 29 C4.91517292 27.92598892 6.77810176 27.22189824 9 25 C11.82668574 25.18844572 13.06919815 26.05423639 15.3125 27.8125 C17 30 17 30 17 31.9375 C15.70105324 34.6165777 13.87856184 36.70103421 12 39 C12.97453125 40.06541016 12.97453125 40.06541016 13.96875 41.15234375 C14.8040625 42.07144531 15.639375 42.99054688 16.5 43.9375 C17.3353125 44.85402344 18.170625 45.77054687 19.03125 46.71484375 C21 49 21 49 21 50 C18.58265458 50.08117951 16.16805051 50.14056926 13.75 50.1875 C13.06808594 50.21263672 12.38617188 50.23777344 11.68359375 50.26367188 C7.34096048 50.32691411 5.27644521 49.78686144 2 47 C-0.9947567 47.7009005 -3.56295093 48.8031832 -6.359375 50.0625 C-12.6874909 52.30916837 -20.22291128 51.75295843 -26.33984375 49.02734375 C-29.41659139 47.12337992 -30.56140919 45.2967706 -32 42 C-32.73780531 37.20426548 -32.79078702 33.39908474 -30.375 29.125 C-27.74014008 26.76749376 -25.01162592 24.84804318 -22 23 C-22.7425 21.5459375 -22.7425 21.5459375 -23.5 20.0625 C-25.76726985 14.73981412 -25.98708253 9.52254424 -23.875 4.125 C-17.60537445 -2.98057563 -8.35726295 -2.79830276 0 0 Z M-11 8 C-12.29633621 9.06645115 -12.29633621 9.06645115 -12.0625 11.5625 C-12.041875 12.366875 -12.02125 13.17125 -12 14 C-10.02 14.99 -10.02 14.99 -8 16 C-7.01 14.68 -6.02 13.36 -5 12 C-5.66 10.68 -6.32 9.36 -7 8 C-8.32 8 -9.64 8 -11 8 Z M-16 31 C-16.66 31.66 -17.32 32.32 -18 33 C-17.67958603 35.60280568 -17.67958603 35.60280568 -17 38 C-12.46859347 38.93380961 -12.46859347 38.93380961 -8 38 C-9.28299758 35.13792848 -10.530636 32.9754912 -13 31 C-13.99 31 -14.98 31 -16 31 Z " fill="#FCFCFC" transform="translate(221,242)"/>
<path d="M0 0 C12 1 12 1 14.69165039 3.14550781 C15.23813232 4.07202148 15.78461426 4.99853516 16.34765625 5.953125 C16.97220703 6.96503906 17.59675781 7.97695312 18.24023438 9.01953125 C18.84158203 10.08558594 19.44292969 11.15164062 20.0625 12.25 C20.69865234 13.30058594 21.33480469 14.35117188 21.99023438 15.43359375 C23.69882892 18.26867492 25.35346171 21.12862675 27 24 C27.99626677 25.66890092 28.99510328 27.33628117 30 29 C30.02505615 28.29391602 30.0501123 27.58783203 30.07592773 26.86035156 C30.19207369 23.65672491 30.31471603 20.45337882 30.4375 17.25 C30.47681641 16.13882813 30.51613281 15.02765625 30.55664062 13.8828125 C30.59853516 12.81289062 30.64042969 11.74296875 30.68359375 10.640625 C30.72025146 9.65610352 30.75690918 8.67158203 30.79467773 7.65722656 C31 5 31 5 32 1 C35.63 1 39.26 1 43 1 C43 18.16 43 35.32 43 53 C31 52 31 52 28.20068359 49.63916016 C27.60594238 48.61612793 27.01120117 47.5930957 26.3984375 46.5390625 C25.72425781 45.42789063 25.05007813 44.31671875 24.35546875 43.171875 C23.69427339 41.99016414 23.03412701 40.80786577 22.375 39.625 C21.6796379 38.44823336 20.98044357 37.2737224 20.27734375 36.1015625 C19.00107355 33.9520548 17.74178088 31.79230924 16.50537109 29.61962891 C15.40536907 27.70541844 14.22464515 25.83696773 13 24 C12.34 33.24 11.68 42.48 11 52 C7.37 52 3.74 52 0 52 C0 34.84 0 17.68 0 0 Z " fill="#FDFDFD" transform="translate(308,178)"/>
<path d="M0 0 C26.05371622 0 26.05371622 0 35.1484375 8.91796875 C40.71103767 15.17296008 40.54447434 21.25727191 40.3359375 29.40625 C39.55224372 37.78995091 35.56809619 41.87776628 29.4140625 47.3359375 C20.35537819 53.58027329 11.26175848 51 0 51 C0 34.17 0 17.34 0 0 Z M12 11 C12 20.9 12 30.8 12 41 C20.51710515 38.48864961 20.51710515 38.48864961 26 33 C27.35593231 28.93220306 27.53075585 25.25331741 27 21 C24.98956726 17.12273686 22.87164729 14.10175138 19 12 C16.69 11.67 14.38 11.34 12 11 Z " fill="#FDFDFD" transform="translate(265,241)"/>
<path d="M0 0 C-0.56874876 3.98124131 -1.87654754 6.61272328 -4 10 C-4.92941406 9.89300781 -5.85882813 9.78601563 -6.81640625 9.67578125 C-16.36932796 8.6093387 -16.36932796 8.6093387 -25 12 C-28.74393684 15.15278892 -29.83987576 17.33470787 -30.3125 22.25 C-29.93813636 26.74236364 -28.86199874 29.53877027 -26 33 C-20.11659364 37.34251422 -13.27834912 36.45218609 -6.375 35.5 C-5.59125 35.335 -4.8075 35.17 -4 35 C-3.30034557 36.26418246 -2.61565237 37.53665402 -1.9375 38.8125 C-1.55464844 39.52019531 -1.17179687 40.22789062 -0.77734375 40.95703125 C0 43 0 43 -1 46 C-7.90020675 49.89941916 -16.40474037 50.13810691 -23.93359375 48.2734375 C-32.28190643 45.4868908 -37.54779688 41.79135546 -42 34 C-45.04183206 27.46006108 -45.11382541 19.49994625 -42.8125 12.6875 C-39.78137497 5.81133673 -34.78296476 1.06848406 -28 -2 C-18.24651715 -4.94940649 -9.10458225 -4.55229112 0 0 Z " fill="#FCFCFC" transform="translate(261,182)"/>
<path d="M0 0 C1.2684375 0.7425 1.2684375 0.7425 2.5625 1.5 C1.99704163 5.45820859 0.75347652 8.1659053 -1.4375 11.5 C-2.05625 11.335 -2.675 11.17 -3.3125 11 C-7.69220729 10.29924683 -12.01178989 10.42265749 -16.4375 10.5 C-16.4375 11.82 -16.4375 13.14 -16.4375 14.5 C-15.49648438 14.99628906 -14.55546875 15.49257813 -13.5859375 16.00390625 C1.16272816 23.95870865 1.16272816 23.95870865 3.5625 29.5 C4.53862417 34.88442688 4.25699084 39.05957456 1.875 44 C-2.14375749 48.34460269 -6.03488465 50.16359881 -11.84765625 50.73828125 C-19.82811011 50.96159292 -26.32127018 49.05811491 -33.4375 45.5 C-32.92714169 41.1109185 -31.91535723 38.16291938 -29.4375 34.5 C-26.10243233 35.03791414 -23.09764493 35.96962147 -19.9375 37.125 C-16.40373662 38.34618367 -14.0745025 38.79054928 -10.4375 37.5 C-9.97241884 35.1406742 -9.97241884 35.1406742 -10.4375 32.5 C-12.85415452 30.63015329 -12.85415452 30.63015329 -16 29.1875 C-21.58818456 26.12557165 -26.31715072 23.21182581 -29.4375 17.5 C-30.61118135 12.67395359 -29.95988 9.47270759 -27.625 5.125 C-21.02880787 -2.79043056 -9.60916485 -4.20029474 0 0 Z " fill="#FDFDFD" transform="translate(468.4375,242.5)"/>
<path d="M0 0 C0.86625 0.495 1.7325 0.99 2.625 1.5 C2.05625124 5.48124131 0.74845246 8.11272328 -1.375 11.5 C-2.20644531 11.34402344 -3.03789062 11.18804687 -3.89453125 11.02734375 C-4.98121094 10.83269531 -6.06789063 10.63804687 -7.1875 10.4375 C-8.26644531 10.24027344 -9.34539062 10.04304687 -10.45703125 9.83984375 C-13.43401781 9.28419925 -13.43401781 9.28419925 -16.375 10.5 C-16.375 11.82 -16.375 13.14 -16.375 14.5 C-15.44558594 14.9846875 -14.51617187 15.469375 -13.55859375 15.96875 C1.01499041 23.77701114 1.01499041 23.77701114 4.625 30.5 C5.64002912 34.5754957 4.87362109 37.81956333 3.4375 41.75 C0.69367306 45.91304777 -1.92460565 47.9312179 -6.5625 49.75 C-15.31475353 51.47175479 -23.43569083 50.96586141 -31.375 46.5 C-32.8046875 44.625 -32.8046875 44.625 -33.375 42.5 C-32.6953125 40.359375 -32.6953125 40.359375 -31.5 38.25 C-31.11070312 37.54359375 -30.72140625 36.8371875 -30.3203125 36.109375 C-30.00835937 35.57828125 -29.69640625 35.0471875 -29.375 34.5 C-26.87390807 34.91684865 -24.74888004 35.30059731 -22.5 36.5 C-18.45145659 38.4051969 -14.60545204 38.91015068 -10.375 37.5 C-9.80900012 35.19549963 -9.80900012 35.19549963 -10.375 32.5 C-12.62743573 30.71431232 -14.65323951 29.34257814 -17.125 27.9375 C-27.62120733 21.761378 -27.62120733 21.761378 -29.375 16.5 C-29.93177299 10.70956092 -29.03143117 6.93603061 -25.375 2.5 C-18.61276553 -3.23319879 -8.05612405 -3.43618352 0 0 Z " fill="#FDFDFD" transform="translate(433.375,180.5)"/>
<path d="M0 0 C9.57 0 19.14 0 29 0 C29 3.3 29 6.6 29 10 C23.06 10 17.12 10 11 10 C11.33 10.66 11.66 11.32 12 12 C12.13415472 14.6723621 12.04318541 17.32250488 12 20 C12.90363281 19.98839844 13.80726563 19.97679687 14.73828125 19.96484375 C15.91777344 19.95582031 17.09726562 19.94679687 18.3125 19.9375 C19.48425781 19.92589844 20.65601563 19.91429687 21.86328125 19.90234375 C25 20 25 20 28 21 C28 23.97 28 26.94 28 30 C24.57767028 31.14077657 21.91326783 31.09815117 18.3125 31.0625 C16.54326172 31.04896484 16.54326172 31.04896484 14.73828125 31.03515625 C13.83464844 31.02355469 12.93101562 31.01195312 12 31 C12.020625 32.27875 12.04125 33.5575 12.0625 34.875 C12.125 38.75 12.125 38.75 11 41 C16.94 41 22.88 41 29 41 C29 44.3 29 47.6 29 51 C19.43 51 9.86 51 0 51 C0 34.17 0 17.34 0 0 Z " fill="#FEFEFE" transform="translate(269,179)"/>
<path d="M0 0 C9.57 0.33 19.14 0.66 29 1 C29.33 4.3 29.66 7.6 30 11 C23.73 11 17.46 11 11 11 C11 14.63 11 18.26 11 22 C16.61 22 22.22 22 28 22 C28 24.97 28 27.94 28 31 C22.39 31 16.78 31 11 31 C11 34.63 11 38.26 11 42 C16.94 42 22.88 42 29 42 C29 45.3 29 48.6 29 52 C19.43 52 9.86 52 0 52 C0 34.84 0 17.68 0 0 Z " fill="#FEFEFE" transform="translate(398,240)"/>
<path d="M0 0 C11.55 0 23.1 0 35 0 C35 3.3 35 6.6 35 10 C31.04 10 27.08 10 23 10 C23 23.53 23 37.06 23 51 C19.37 51 15.74 51 12 51 C12 37.47 12 23.94 12 10 C8.04 10 4.08 10 0 10 C0 6.7 0 3.4 0 0 Z " fill="#FEFEFE" transform="translate(359,179)"/>
<path d="M0 0 C3.63 0 7.26 0 11 0 C11 16.83 11 33.66 11 51 C7.37 51 3.74 51 0 51 C0 34.17 0 17.34 0 0 Z " fill="#FEFEFE" transform="translate(314,241)"/>
</svg>
