<?xml version="1.0" encoding="UTF-8"?>
<svg version="1.1" xmlns="http://www.w3.org/2000/svg" width="500" height="500">
<path d="M0 0 C7.29162721 -0.09968572 14.5828482 -0.17185267 21.875 -0.21972656 C24.35000529 -0.23970707 26.8249642 -0.2669009 29.29980469 -0.30175781 C50.88846559 -0.59797027 68.32712113 0.6005069 84.8125 16.1875 C96.0496064 28.04078251 100.60206912 40.77085208 100.4375 56.9375 C100.42920166 57.99291992 100.42090332 59.04833984 100.41235352 60.13574219 C100.24790294 67.70398022 99.48247262 74.1788737 96 81 C95.49082031 82.0209375 94.98164063 83.041875 94.45703125 84.09375 C86.60918884 98.60417716 74.4779074 107.43174777 58.75390625 112.30859375 C51.93646701 114.02020616 45.4690012 114.13161621 38.4765625 114.09765625 C37.37524994 114.0962413 36.27393738 114.09482635 35.13925171 114.09336853 C31.63447308 114.08778752 28.1297592 114.07523846 24.625 114.0625 C22.24349051 114.05748255 19.86198001 114.05292007 17.48046875 114.04882812 C11.65362103 114.0378243 5.82682148 114.0205727 0 114 C-0.33 108.06 -0.66 102.12 -1 96 C-2.98 95.46375 -4.96 94.9275 -7 94.375 C-13.03857081 92.50638688 -17.42568555 90.3440286 -22 86 C-22.55300781 85.47535156 -23.10601562 84.95070313 -23.67578125 84.41015625 C-30.80131345 76.89563718 -32.36134734 69.01200229 -32.5 58.9375 C-32.51853027 58.09872314 -32.53706055 57.25994629 -32.55615234 56.39575195 C-32.46085969 46.85434152 -28.39291505 38.96607295 -22 32 C-15.30589192 25.97393936 -8.98970115 23.28424302 0 22 C0 14.74 0 7.48 0 0 Z M13 12 C12.52682778 18.37826356 12.52682778 18.37826356 15 24 C17.25186164 25.45104917 17.25186164 25.45104917 19.875 26.5625 C23.24522965 28.09670902 26.10668877 29.67862238 29 32 C28.125 36.875 28.125 36.875 27 38 C23.49929957 38.48620839 22.30543885 38.23094157 19.4375 36.0625 C18.633125 35.381875 17.82875 34.70125 17 34 C15.68 33.67 14.36 33.34 13 33 C13 50.16 13 67.32 13 85 C17.8493381 83.29897937 17.8493381 83.29897937 21 80.8125 C24 79 24 79 26.75 79 C29.51766055 80.23007136 29.80711548 81.31058762 31 84 C29.66773831 84.89742628 28.33411523 85.79283151 27 86.6875 C26.1853125 87.23921875 25.370625 87.7909375 24.53125 88.359375 C22 90 22 90 19.65625 91.265625 C18.9446875 91.65234375 18.233125 92.0390625 17.5 92.4375 C16.8503125 92.76621094 16.200625 93.09492188 15.53125 93.43359375 C13.11157486 95.90882266 13.28100045 98.66311971 13 102 C46.04534861 102.93489008 46.04534861 102.93489008 74.6875 88 C83.85559204 78.28748445 86.52026091 66.04700645 86.2734375 53.140625 C85.77120071 42.29032129 80.62551375 31.4433928 72.828125 23.8984375 C55.46699187 9.82993307 34.13943338 11.79958238 13 12 Z M-16.23828125 39.02734375 C-22.11259676 45.60501411 -23.35757681 53.00262777 -23.28125 61.5703125 C-22.65507169 69.20620907 -19.54813211 75.69845154 -14 81 C-9.59769631 83.97431629 -6.39345949 86 -1 86 C-0.16999149 79.03395169 0.13645738 72.19152546 0.09765625 65.1796875 C0.0962413 64.19501495 0.09482635 63.21034241 0.09336853 62.1958313 C0.08782615 59.088855 0.07528483 55.98195407 0.0625 52.875 C0.05747754 50.75260522 0.05291595 48.63020929 0.04882812 46.5078125 C0.03787567 41.33851317 0.02065166 36.16926931 0 31 C-6.45586346 31 -11.70729638 34.83462495 -16.23828125 39.02734375 Z " fill="#292828" transform="translate(66,179)"/>
<path d="M0 0 C3.08361389 3.08361389 2.70630628 6.93532302 3.0703125 11.1015625 C3.15626678 12.0119931 3.24222107 12.92242371 3.33078003 13.86044312 C3.51135744 15.79182641 3.6875969 17.7236194 3.85986328 19.65576172 C4.12215193 22.59310477 4.39774825 25.52895358 4.67578125 28.46484375 C4.84975135 30.34367674 5.02295257 32.22258111 5.1953125 34.1015625 C5.27653351 34.97269684 5.35775452 35.84383118 5.44143677 36.74136353 C5.89262501 41.85094235 6.07629455 46.87048801 6 52 C2.04 52 -1.92 52 -6 52 C-8.69535011 43.91394966 -8.17190717 34.46165271 -8 26 C-8.66 26 -9.32 26 -10 26 C-10.20625 27.155 -10.4125 28.31 -10.625 29.5 C-11.68582204 34.33177339 -13.32521757 38.87958988 -15.0625 43.5 C-15.3320752 44.21865234 -15.60165039 44.93730469 -15.87939453 45.67773438 C-17.86291045 50.86291045 -17.86291045 50.86291045 -19 52 C-21.33297433 52.04092937 -23.66705225 52.04241723 -26 52 C-29.50236667 43.72845318 -32.81640303 35.3992771 -36 27 C-36.05534912 27.72179443 -36.11069824 28.44358887 -36.16772461 29.18725586 C-36.4196154 32.43772168 -36.67846301 35.68759621 -36.9375 38.9375 C-37.02451172 40.07380859 -37.11152344 41.21011719 -37.20117188 42.38085938 C-37.33168945 44.00024414 -37.33168945 44.00024414 -37.46484375 45.65234375 C-37.543396 46.65257568 -37.62194824 47.65280762 -37.70288086 48.68334961 C-38 51 -38 51 -39 52 C-42.66655195 52.14300125 -46.33144219 52.04216733 -50 52 C-50.18731119 41.36488705 -49.76449992 30.91127829 -48.77319336 20.3215332 C-48.55784674 18.01260822 -48.35542613 15.70278113 -48.15429688 13.39257812 C-48.02157154 11.91920415 -47.88813676 10.44589386 -47.75390625 8.97265625 C-47.6934462 8.28430191 -47.63298615 7.59594757 -47.57069397 6.88673401 C-47.1156764 2.1156764 -47.1156764 2.1156764 -46 1 C-43.81360547 0.92741054 -41.62499611 0.91626217 -39.4375 0.9375 C-37.64119141 0.95103516 -37.64119141 0.95103516 -35.80859375 0.96484375 C-34.88175781 0.97644531 -33.95492188 0.98804688 -33 1 C-32.70230713 1.7520874 -32.40461426 2.5041748 -32.09790039 3.27905273 C-30.75543994 6.66626842 -29.40902526 10.05189828 -28.0625 13.4375 C-27.59392578 14.62150391 -27.12535156 15.80550781 -26.64257812 17.02539062 C-26.19462891 18.15009766 -25.74667969 19.27480469 -25.28515625 20.43359375 C-24.87144775 21.47572021 -24.45773926 22.51784668 -24.03149414 23.59155273 C-23.21597977 25.90789285 -23.21597977 25.90789285 -22 27 C-18.7 18.42 -15.4 9.84 -12 1 C-6.06 0.505 -6.06 0.505 0 0 Z " fill="#272727" transform="translate(384,240)"/>
<path d="M0 0 C3.82564012 2.73260009 5.99847764 5.35020842 7.1484375 9.984375 C7.54020089 13.90200892 7.25643952 16.04726516 4.828125 19.23046875 C2.83505683 21.22707073 0.80660632 23.08783589 -1.375 24.875 C-0.055 26.525 1.265 28.175 2.625 29.875 C5.50937779 28.58200306 7.49719421 27.21558637 9.625 24.875 C13.44184226 26.43000981 15.81695732 28.91095495 18.625 31.875 C17.17640574 35.25505327 15.25169829 37.3337228 12.625 39.875 C13.346875 40.58527344 14.06875 41.29554688 14.8125 42.02734375 C15.740625 42.94644531 16.66875 43.86554688 17.625 44.8125 C18.553125 45.72902344 19.48125 46.64554687 20.4375 47.58984375 C22.625 49.875 22.625 49.875 22.625 50.875 C20.04103321 50.95612454 17.45962432 51.01554748 14.875 51.0625 C14.14539063 51.08763672 13.41578125 51.11277344 12.6640625 51.13867188 C8.20850877 51.19942943 5.97728273 50.77978831 2.625 47.875 C-0.36164903 48.57400296 -2.91884076 49.66758531 -5.703125 50.93359375 C-11.82109633 53.08919476 -19.02442787 52.89218299 -24.9375 50.1875 C-28.22595643 48.21169146 -30.08143909 46.59398763 -31.375 42.875 C-31.99886299 38.08941808 -32.15973017 34.26336875 -29.75 30 C-27.11514008 27.64249376 -24.38662592 25.72304318 -21.375 23.875 C-21.87 22.92625 -22.365 21.9775 -22.875 21 C-24.84034783 16.34174769 -25.24473798 11.8554807 -24.375 6.875 C-22.65294407 3.2910631 -20.23347466 1.31421959 -16.6875 -0.5 C-10.90237267 -1.59153346 -5.62972008 -1.87657336 0 0 Z M-10.375 8.875 C-11.67133621 9.94145115 -11.67133621 9.94145115 -11.4375 12.4375 C-11.416875 13.241875 -11.39625 14.04625 -11.375 14.875 C-9.395 15.865 -9.395 15.865 -7.375 16.875 C-5.08771266 15.03616119 -5.08771266 15.03616119 -5.25 12.25 C-5.29125 11.46625 -5.3325 10.6825 -5.375 9.875 C-7.03114657 9.49281233 -8.69957024 9.16104898 -10.375 8.875 Z M-15.375 31.875 C-16.035 32.535 -16.695 33.195 -17.375 33.875 C-17.05458603 36.47780568 -17.05458603 36.47780568 -16.375 38.875 C-11.84359347 39.80880961 -11.84359347 39.80880961 -7.375 38.875 C-8.65799758 36.01292848 -9.905636 33.8504912 -12.375 31.875 C-13.365 31.875 -14.355 31.875 -15.375 31.875 Z " fill="#2C2C2C" transform="translate(220.375,241.125)"/>
<path d="M0 0 C3.96 0 7.92 0 12 0 C15.08193824 3.40635279 16.80518144 6.05575494 19 10 C20.44376716 12.27670974 21.92027916 14.53006114 23.40014648 16.78344727 C25.62539161 20.172732 27.8118489 23.58669829 30 27 C30.02505615 26.32420898 30.0501123 25.64841797 30.07592773 24.95214844 C30.19210742 21.8845832 30.31473437 18.81730842 30.4375 15.75 C30.47681641 14.68652344 30.51613281 13.62304688 30.55664062 12.52734375 C30.59853516 11.50253906 30.64042969 10.47773438 30.68359375 9.421875 C30.72025146 8.47924805 30.75690918 7.53662109 30.79467773 6.56542969 C31 4 31 4 32 0 C35.63 0 39.26 0 43 0 C43 17.16 43 34.32 43 52 C31 51 31 51 28.29248047 48.82275391 C27.73963379 47.88351074 27.18678711 46.94426758 26.6171875 45.9765625 C25.988125 44.955625 25.3590625 43.9346875 24.7109375 42.8828125 C24.10507812 41.80773437 23.49921875 40.73265625 22.875 39.625 C22.23046875 38.55765625 21.5859375 37.4903125 20.921875 36.390625 C19.73368305 34.41693377 18.56225379 32.43298093 17.41357422 30.43603516 C16.33968946 28.5853923 15.18686497 26.78029745 14 25 C13.97494385 25.64549805 13.9498877 26.29099609 13.92407227 26.95605469 C13.80785567 29.88755894 13.68524558 32.81876217 13.5625 35.75 C13.52318359 36.76578125 13.48386719 37.7815625 13.44335938 38.828125 C13.40146484 39.8078125 13.35957031 40.7875 13.31640625 41.796875 C13.26141968 43.14797363 13.26141968 43.14797363 13.20532227 44.52636719 C13 47 13 47 12 51 C8.04 51 4.08 51 0 51 C0 34.17 0 17.34 0 0 Z " fill="#201F1F" transform="translate(308,179)"/>
<path d="M0 0 C26.91948529 0 26.91948529 0 33.6484375 6.390625 C39.71033772 13.60884145 40.89463872 21.0977559 40.4140625 30.28125 C39.58626613 37.71579851 36.74740494 41.85929623 31.171875 46.67578125 C20.77855029 53.01271844 12.96348152 51.38269136 0 52 C0 34.84 0 17.68 0 0 Z M12 11 C12 20.57 12 30.14 12 40 C19.84223125 38.90193634 19.84223125 38.90193634 25 34 C27.28833963 30.04741337 27.39569707 26.51094661 27 22 C25.26794181 17.35079117 23.24157009 14.60278165 19 12 C16.69 11.67 14.38 11.34 12 11 Z " fill="#262525" transform="translate(265,241)"/>
<path d="M0 0 C1.14947895 3.55293493 1.0868937 4.79976669 -0.4375 8.3125 C-1.2109375 9.6428125 -1.2109375 9.6428125 -2 11 C-2.99 10.835 -3.98 10.67 -5 10.5 C-9.02732942 9.91525483 -12.93474623 9.92867976 -17 10 C-17.66 11.32 -18.32 12.64 -19 14 C-17.9171875 14.40605469 -17.9171875 14.40605469 -16.8125 14.8203125 C-9.54234507 17.86973859 -0.15872491 22.43279379 3 30 C3.72438038 34.55685796 3.48590609 38.73234679 1.375 42.875 C-1.98483152 47.29583095 -5.68569557 48.89685016 -11 50 C-20.19450668 50.82238256 -26.85097707 49.07451146 -35 45 C-34.48964169 40.6109185 -33.47785723 37.66291938 -31 34 C-28.38632586 34.44805842 -26.15714657 34.9257919 -23.75 36.0625 C-19.83295819 37.39785516 -16.10015744 37.16079049 -12 37 C-11.5242861 34.64876624 -11.5242861 34.64876624 -12 32 C-14.47864363 30.02431923 -14.47864363 30.02431923 -17.6875 28.5 C-23.63328108 25.27849317 -27.23624806 22.64562792 -31 17 C-31.75494951 12.39129661 -31.43664672 8.85712134 -29.3125 4.6875 C-20.9224779 -5.06306623 -11.26956015 -4.57315484 0 0 Z " fill="#2B2A2A" transform="translate(435,181)"/>
<path d="M0 0 C1.64453125 1.046875 1.64453125 1.046875 2.6328125 2.71875 C2.65180341 6.49161115 0.64254141 8.89849536 -1.35546875 12.046875 C-2.58523437 11.98886719 -3.815 11.93085938 -5.08203125 11.87109375 C-6.71480563 11.82417495 -8.34762127 11.77867706 -9.98046875 11.734375 C-11.19283203 11.6715332 -11.19283203 11.6715332 -12.4296875 11.60742188 C-16.69331578 11.52076276 -19.47221172 11.66959842 -22.8515625 14.42578125 C-25.96410201 17.68399343 -27.2854 19.64702038 -27.41796875 24.1875 C-27.19660785 28.36568692 -26.71149547 30.56878197 -24.16796875 33.984375 C-18.85563182 37.88008875 -14.44277561 38.28152659 -7.98046875 37.671875 C-6.73523438 37.56101563 -5.49 37.45015625 -4.20703125 37.3359375 C-3.26601562 37.24054688 -2.325 37.14515625 -1.35546875 37.046875 C2.69653676 43.43185337 2.69653676 43.43185337 2.46484375 46.171875 C1.64453125 48.046875 1.64453125 48.046875 -1.54296875 49.796875 C-9.4899585 52.3650225 -18.35660071 52.45888284 -25.91796875 48.796875 C-27.41895653 47.91639361 -28.90203141 47.00381371 -30.35546875 46.046875 C-31.28359375 45.44875 -32.21171875 44.850625 -33.16796875 44.234375 C-38.57062999 38.83171376 -41.48790704 33.01068319 -41.60546875 25.359375 C-41.50910369 17.36107501 -39.66491643 11.61073464 -34.23828125 5.65234375 C-24.40371095 -2.73356578 -11.97346958 -3.88328743 0 0 Z " fill="#292828" transform="translate(258.35546875,179.953125)"/>
<path d="M0 0 C1.71484375 1.046875 1.71484375 1.046875 2.58203125 2.921875 C2.816044 6.66607907 0.67916527 8.95158048 -1.28515625 12.046875 C-2.08953125 11.881875 -2.89390625 11.716875 -3.72265625 11.546875 C-7.94402977 10.95440152 -12.0318017 10.96180791 -16.28515625 11.046875 C-16.28515625 12.366875 -16.28515625 13.686875 -16.28515625 15.046875 C-15.33253906 15.56636719 -14.37992187 16.08585937 -13.3984375 16.62109375 C-12.13126466 17.32507866 -10.86435127 18.02953072 -9.59765625 18.734375 C-8.97181641 19.07404297 -8.34597656 19.41371094 -7.70117188 19.76367188 C-2.47922417 22.68905619 1.35745219 26.01078767 4.71484375 31.046875 C5.17457861 36.65564029 4.89637226 40.21972829 1.71484375 45.046875 C-4.29827999 50.74351855 -9.8729616 51.48459811 -17.91015625 51.375 C-23.60343347 50.82148694 -29.1781773 49.15385395 -33.28515625 45.046875 C-32.96315691 41.07554981 -31.44935628 38.34022287 -29.28515625 35.046875 C-26.6864075 35.49237479 -24.47923682 35.9526073 -22.09765625 37.109375 C-17.86829403 38.51916241 -13.70453819 38.20133883 -9.28515625 38.046875 C-10.64387686 33.41451175 -12.4788617 31.8865407 -16.59765625 29.484375 C-27.5704812 23.00247431 -27.5704812 23.00247431 -29.28515625 18.046875 C-29.97406743 13.19245439 -29.78314961 9.16736006 -27.78515625 4.671875 C-19.85480168 -3.6549973 -10.39256013 -3.28762886 0 0 Z " fill="#292828" transform="translate(468.28515625,241.953125)"/>
<path d="M0 0 C9.57 0 19.14 0 29 0 C29 3.3 29 6.6 29 10 C25.43954823 11.18681726 22.56191663 11.09689832 18.8125 11.0625 C17.54019531 11.05347656 16.26789063 11.04445312 14.95703125 11.03515625 C13.49330078 11.01775391 13.49330078 11.01775391 12 11 C12.020625 12.11375 12.04125 13.2275 12.0625 14.375 C12 18 12 18 11 20 C16.61 20 22.22 20 28 20 C28 23.63 28 27.26 28 31 C22.39 31 16.78 31 11 31 C11 34.3 11 37.6 11 41 C16.94 41 22.88 41 29 41 C29 44.3 29 47.6 29 51 C19.43 51 9.86 51 0 51 C0 34.17 0 17.34 0 0 Z " fill="#1F1E1E" transform="translate(398,241)"/>
<path d="M0 0 C9.57 0 19.14 0 29 0 C29 3.3 29 6.6 29 10 C23.39 10 17.78 10 12 10 C12 13.3 12 16.6 12 20 C17.28 20 22.56 20 28 20 C28 23.63 28 27.26 28 31 C22.72 31 17.44 31 12 31 C12 34.3 12 37.6 12 41 C17.61 41 23.22 41 29 41 C29 44.3 29 47.6 29 51 C19.43 51 9.86 51 0 51 C0 34.17 0 17.34 0 0 Z " fill="#1D1C1C" transform="translate(269,179)"/>
<path d="M0 0 C11.55 0 23.1 0 35 0 C35 3.3 35 6.6 35 10 C32.59454362 11.20272819 31.05003047 11.10071472 28.375 11.0625 C27.14910156 11.04896484 27.14910156 11.04896484 25.8984375 11.03515625 C24.95871094 11.01775391 24.95871094 11.01775391 24 11 C24.00785522 12.55110474 24.00785522 12.55110474 24.01586914 14.13354492 C24.03401385 17.98200612 24.04546659 21.83046355 24.05493164 25.67895508 C24.05995023 27.34237301 24.06676652 29.00578656 24.07543945 30.66918945 C24.08761357 33.06462693 24.09325314 35.46000591 24.09765625 37.85546875 C24.10281754 38.5952446 24.10797882 39.33502045 24.11329651 40.09721375 C24.11371267 43.95597151 23.76549736 47.17251318 23 51 C19.37 51 15.74 51 12 51 C12 37.47 12 23.94 12 10 C8.04 10 4.08 10 0 10 C0 6.7 0 3.4 0 0 Z " fill="#201F1F" transform="translate(359,179)"/>
<path d="M0 0 C3.96 0.33 7.92 0.66 12 1 C12 17.83 12 34.66 12 52 C8.04 52 4.08 52 0 52 C0 34.84 0 17.68 0 0 Z " fill="#212020" transform="translate(314,240)"/>
<path d="M0 0 C0.66 0 1.32 0 2 0 C3.62634948 4.87904845 2.9051055 9.84314666 2.6875 14.9375 C2.65205078 16.03513672 2.61660156 17.13277344 2.58007812 18.26367188 C2.53689453 19.32005859 2.49371094 20.37644531 2.44921875 21.46484375 C2.41143311 22.430271 2.37364746 23.39569824 2.3347168 24.39038086 C2 27 2 27 0 31 C0 20.77 0 10.54 0 0 Z " fill="#BCBCBC" transform="translate(319,199)"/>
<path d="M0 0 C0.66 0.33 1.32 0.66 2 1 C-1.3 4.3 -4.6 7.6 -8 11 C-8 6.67750434 -5.85084926 5.11604454 -3 2 C-2.01 1.34 -1.02 0.68 0 0 Z " fill="#595858" transform="translate(229,182)"/>
<path d="M0 0 C0.66 0.33 1.32 0.66 2 1 C-0.31 3.31 -2.62 5.62 -5 8 C-5.33 7.34 -5.66 6.68 -6 6 C-4 4 -2 2 0 0 Z " fill="#626161" transform="translate(446,242)"/>
</svg>
