<?xml version="1.0" encoding="UTF-8"?>
<svg version="1.1" xmlns="http://www.w3.org/2000/svg" width="500" height="500">
<path d="M0 0 C12.04098008 -0.09334749 24.0818718 -0.16408972 36.12314224 -0.20724869 C41.7165037 -0.22797975 47.30961467 -0.25602743 52.90283203 -0.30175781 C58.3169673 -0.34573879 63.73086414 -0.36924545 69.14516449 -0.37950897 C71.19407649 -0.38680782 73.24297786 -0.40105532 75.29178619 -0.42292023 C108.44309789 -0.76211591 140.64167557 8.52589279 165.14306641 31.67431641 C185.65211966 51.79946226 197.03381657 79.03987328 197.38037109 107.70678711 C197.3400323 136.19514338 191.82973971 160.6964299 173 183 C172.00033203 184.20076172 172.00033203 184.20076172 170.98046875 185.42578125 C151.56174885 207.92350539 123.16824267 221.80831994 93.5736084 224.28697205 C82.95291704 224.97715472 72.3597343 225.21166826 61.71875 225.31640625 C59.92557369 225.33704287 58.1324015 225.35804073 56.3392334 225.37937927 C51.67713823 225.43390894 47.01500438 225.48361531 42.35284424 225.53222656 C36.72821436 225.59191327 31.10365334 225.65775106 25.4790802 225.72252655 C16.98609641 225.8196631 8.4930633 225.90911339 0 226 C0 213.79 0 201.58 0 189 C-4.95 188.01 -9.9 187.02 -15 186 C-34.65597647 178.79929575 -48.77684547 167.41574856 -57.875 148.375 C-66.31899672 128.4296974 -66.30698099 106.87494413 -58.3125 86.8125 C-51.10675258 70.96693748 -38.69621187 57.3940968 -22.54296875 50.53125 C-15.79123088 48.01489266 -9.10540983 46.16021677 -2 45 C-0.8746742 35.63804589 -0.67053444 26.29149375 -0.4375 16.875 C-0.3942145 15.23436615 -0.35059737 13.59374101 -0.30664062 11.953125 C-0.20060372 7.96884016 -0.09905423 3.9844643 0 0 Z M25 23 C25.33 30.92 25.66 38.84 26 47 C28.578125 47.99 31.15625 48.98 33.8125 50 C41.47450559 53.06348335 47.61299039 56.7318033 54 62 C55.66643958 63.33361715 57.33304502 64.66702714 59 66 C58.41463247 69.66060821 56.916761 71.54535164 54.4375 74.25 C53.79683594 74.95640625 53.15617187 75.6628125 52.49609375 76.390625 C52.00238281 76.92171875 51.50867188 77.4528125 51 78 C46.63026786 77.11560705 43.63212958 74.75348565 40.125 72.125 C33.20319908 66.44796101 33.20319908 66.44796101 25 64 C25 98.98 25 133.96 25 170 C29.92656375 168.35781208 32.84086815 167.01982547 37 164.1875 C38.0415625 163.48109375 39.083125 162.7746875 40.15625 162.046875 C42.40348045 160.42936297 44.45566134 158.79409327 46.5 156.9375 C49 155 49 155 50.921875 155.15625 C53.48666174 156.19759199 54.85392142 157.55703227 56.75 159.5625 C57.36359375 160.20316406 57.9771875 160.84382812 58.609375 161.50390625 C59.06828125 161.99761719 59.5271875 162.49132812 60 163 C54.48338541 175.43942505 36.71419492 181.9344022 25 187 C25 191.62 25 196.24 25 201 C38.14097905 201.04472256 51.27385508 200.91447607 64.4128418 200.68261719 C66.68817224 200.64405503 68.96356938 200.60925327 71.23901367 200.578125 C74.58272251 200.53212714 77.9260523 200.47431214 81.26953125 200.4140625 C82.76997734 200.39673569 82.76997734 200.39673569 84.30073547 200.37905884 C94.19744593 200.17534145 103.82751934 198.92165247 113.0625 195.25 C113.73804932 194.98759521 114.41359863 194.72519043 115.10961914 194.45483398 C124.76194242 190.61111024 133.01273848 185.63064649 141 179 C141.59296875 178.55269531 142.1859375 178.10539063 142.796875 177.64453125 C158.44486978 165.40607662 167.14891879 144.12526528 170 125 C171.68784403 98.16677194 166.74667832 74.61437764 149.24609375 53.5078125 C132.96790691 35.33286302 110.51355821 25.32130515 86.20947266 23.82861328 C82.86930052 23.67255993 79.52946653 23.54876941 76.1875 23.4375 C74.95169189 23.3950415 73.71588379 23.35258301 72.44262695 23.30883789 C56.63133848 22.82223127 40.81672095 22.91621513 25 23 Z M-31.75 76.3125 C-35.63326617 80.40591939 -38.39275527 85.0197847 -41 90 C-41.39316406 90.73605469 -41.78632813 91.47210938 -42.19140625 92.23046875 C-48.8213256 106.44442869 -48.08003356 124.1584579 -43.3125 138.75 C-37.46610209 153.18396408 -27.98921983 162.21979383 -14.46875 169.58984375 C-10.03741709 171.51770786 -10.03741709 171.51770786 -1 173 C-1 136.04 -1 99.08 -1 61 C-12.57940088 61 -23.60131576 68.767422 -31.75 76.3125 Z " fill="#201F1F" transform="translate(181,135)"/>
</svg>
